<svg id="Layer_2" data-name="Layer 2" xmlns="http://www.w3.org/2000/svg" viewBox="0 0 593.25 356.36"><defs><style>.cls-1{fill:#ffd000;}</style></defs><path class="cls-1" d="M759.3,540.71c-1.15-2-.29-12.93-5.17-24.43s-14.23-16.38-25.59-21.56-54-22.13-54-22.13l-2.73-6h4.45c0,5.46,4.75,5.89,4.75,5.89h9.48c5.61,0,6.18-5.61,6.18-5.61V432.5c0-4.46-5.17-4.46-5.17-4.46H680.4c-4,0-4.17,4.17-4.17,4.17v2.59H657s-3.45-9.2-4.17-12.51.57-12.93,2.44-20.12,1-11.06-6.61-21.12-23-21.56-39.66-34.49-33.63-19.84-43.41-21.27-134.22-6.61-134.22-6.61c6.9,4,11.78,11.21,11.78,11.21l33.92,65.82S445.43,350,434.8,335.92s-35.36-13.79-35.36-13.79l-42.54,6.32V539.13H343.68v-209l-27.59-.07L195.16,424.31l110.12-62.09v56.91l-108.62,47,108.62-27.81v50l-109,14.87,109,1.51v32.77l-112.93,5.6,63,22a90.59,90.59,0,0,0,6.47,38.59c-3.67-30,10.56-46.35,10.56-46.35l-30-7.11,184.31,8.4-69,5.61-1.29,48.72c-5.39-8.62-8.62-31-8.19-39.88s-7.76-11.64-7.76-11.64l-58.64.64c-8.62,4.53-13.58,23.72-14.2,37.08s4.29,35.35,16.79,33.63,14.66-21.13,14.66-21.13a30.35,30.35,0,0,1-3.88,20.7l10.1.86c-3.69-5.17-2.12-14-2.12-14s4.09,22.2,18.53,18.54,15.31-30,15.31-30c4.53,18.33-7.11,29.54-7.11,29.54s13.58,2.37,22-.86,14.23-12.29,14.23-12.29,93.13,14.66,102.18,15.73,20.05-4.52,20.05-4.52-3.45-21.13.21-48.72S506,550.2,520,552.14s19,16.6,19,16.6H515.28c-6,1.94-20.27,20.48-20.48,52.6s12.07,55,34.49,53.65,23.49-35.33,23.49-35.33c5.61,22.42-9.91,34.49-9.91,34.49s18.11,3.23,28.88-3,13.59-18.75,13.59-18.75-5.83.21-10.35-2.16-14.23-9.91-14.23-9.91c7.55,3.44,19.19,5.17,29.75,5.6s91.4-5.17,91.4-5.17,5.6,25.22,35.14,27.59,38.8-24.14,38.8-24.14l-38.66-4.46s41.53,1.15,53.75-1.87,14.66-12.21,14.66-12.21V578.22c0-12.79-2.3-16.53-6.18-21.7S760.45,542.72,759.3,540.71ZM452.19,480H434.33c-6.25,0-5.61-6.68-5.61-6.68V436.7c0-6.25,6-5,6-5-1.94.81-1.69,3.49-1.69,3.49s-.29,30.75,0,37.08,4.46,6,4.46,6h14.66l2.28,0Zm5.17-51.13c-4.17-1.29-20.55-.71-20.55-.71V414.33s7.61.11,17.24.06c10.49-.06,14.38.29,19.12,5.89s3.45,15.52,3.45,15.52H461.1S461.53,430.2,457.36,428.9Zm4.17,48v-5.46h21.41ZM475.47,444s-.36,21.78,0,22.14-13.94,0-13.94,0v-24.9h22.85ZM676,439.11v22.7h-5.9l-10.49-22.7Zm-167.36-26H621.05c9,0,13,5.82,13,5.82s18.33,33.62,21.56,41.82-4.74,8.62-4.74,8.62H516.35c-13.58,0-16.35-11.86-16.35-11.86s-3.48-14.22-6.07-29.31S508.59,413.1,508.59,413.1ZM613.25,573.91c0,10.35-8.62,10.78-8.62,10.78H574.77c-10.34,0-10.78-8.09-10.78-8.09s-.1-3.34,0-14,8.84-11,8.84-11h30.51c8.51,0,9.91,9.38,9.91,9.38Zm-52.13-52.74c-26.59-5.75-61.12-6-61.12-6l11.11-11.35s35.35,2.15,66.82,13.22c35.68,12.54,41.68,31.19,41.68,31.19C610.7,540.57,587.71,526.92,561.12,521.17Zm193,57.48c-1.3,11.64-9.27,12.94-10.35,13.15s-77,2.59-86.23,1.51A39.11,39.11,0,0,1,642,588.14s50.44-4.24,69.41-5.89A118.77,118.77,0,0,0,743.78,575l-108,1.72-2.59-8.57s53.68-.7,73.73-2.21a109.37,109.37,0,0,0,35.35-8.83L631,559.47l-1.51-9s67.9-2,84.72-4.13,27.59-6.47,27.59-6.47l-114.25,1.94-1.3-8s60.79-1.5,82.78-4.31,28-7.11,28-7.11l-113.18,1.94s-.21-11.21,8-13.58,93.34-3.43,93.34-3.43,16-1.1,20.26,13.56S755.42,567,754.13,578.65Zm24.86,3.6h-5.32c-5.32,0-6.75-6.18-6.75-6.18V562.56a5.77,5.77,0,0,1,3.45-5.46c4.88.28,7.76,4.31,8.62,7.76S779,582.25,779,582.25Z" transform="translate(-192.35 -318.68)"/></svg>